<svg xmlns="http://www.w3.org/2000/svg" viewBox="0 0 707.58 554.8"><defs><style>.cls-1{fill:#ee5864;}</style></defs><g id="레이어_2" data-name="레이어 2"><g id="레이어_1-2" data-name="레이어 1"><path class="cls-1" d="M700.05,539.9l3.74-8.09a39.42,39.42,0,0,0-6.37,6c-1.39,1.52-3.34,2.4-4.26.2-1.92-4.63-5.55-3.76-9.16-3.75a6.89,6.89,0,0,1-3.75-1.22c-2.34-1.68-4.23-4.11-6.73-5.4-6.29-3.25-8.3-9-9.86-15.29-3.73-.88-7.62-2.74-11.31-2.42-3.9.33-5.12-1.45-6.6-3.8l4.82-5.86-1.89-1.63L646,503.87c-4.92-4.5-1.54-5.79,1.24-6.54a80.07,80.07,0,0,1-10.77-.14c-2-.15-4-.69-6.05-.84-4.53-.34-6-2.29-4.92-6.59,1.88-7.24-.52-11.8-7.35-15-2.13-1-3.79-3-5.63-4.61-1.4-1.21-2.64-3.43-4.12-3.59-4.55-.46-6-2.33-4.56-6.66.18-.55-.27-1.32-.49-2.27-10.43,2.41-16-3.59-20.49-12.09-4.39,3.86-8,1.2-9.75-2.21-1.66-3.22-1.31-7.47-1.91-11.72L564,438c-3-2.8-3-5.67-1.43-8.89,1.11-2.27,2-4,0-6.94-3.94-5.78-8.94-3-13.29-2.45-3.36.39-5.33.74-6.05-3.1-.11-.61-1.25-1-1.7-1.59-.84-1.19-2.11-2.46-2.17-3.75-.62-12.87-1.37-25.75-1.43-38.63-.39-88.76,1.15-177.51.78-266.28-.07-16.86-.74-33.72-.77-50.59,0-13.18.44-26.37.94-39.54.09-2.32,1.94-3.78,3.55-5.13a3.74,3.74,0,0,0,1.58-2.64c0-3.15-5.56-5.48-8.06-5.81a144.27,144.27,0,0,0-15.28-1C377.11-1.52,233.21.59,89.71,1.84c-9.09.08-18.31-.21-27.37.18C44.15,2.79,26,1.8,8,4.39a16.66,16.66,0,0,0-4.3,1C1.54,6.34-.68,8.82.19,11.31.84,13.17,3,14.06,3.94,15.7a9.93,9.93,0,0,1,1.11,5.17c-.42,133.64.84,267.29.84,400.93q0,27.33,0,54.65c0,15.13.15,30.26.09,45.4,0,1.17-1.4,2.28-1.73,3.53-.75,2.81-1.74,5.72-1.58,8.52.07,1.21,2.67,3.06,4.29,3.25,11.43,1.36,22.89,2.73,34.38,3.36,64.51,3.54,129.62.2,194.2,0,3.66,0,6.59.69,8.82,3.69s5,2.9,8.3,2.41c6.62-1,13.27-1.89,19.94-2.44s13.14-.69,19.72-.87a56.23,56.23,0,0,1,5.61.61c4.66.34,9.17,4.1,14,.55.45-.32,1.61.36,2.44.54,7.85,1.72,15.55,5.13,23.74,3.62,4.38-.81,7.79.6,11.6,2,2.4.89,5.28.6,7.95.69,6.55.23,13.1.38,19.65.54,3.69.09,7.46.62,11,.05,3-.48,5.52-1.14,8.08,1.35,1,1,3.16,1.21,4.81,1.26,2.44.08,4.9-.52,7.34-.45,11.61.32,23.2,1,34.82-.07,3.34-.3,7,1.25,10.12.52,7.73-1.78,15.26,1.85,23.35-.74,6.66-2.13,14.57-.32,21.92-.26,7.11.06,14.22.07,21.33.22,2.84.06,5.68.66,8.51.65,7.71,0,15.42-.23,23.13-.38,10.28-.18,20.61.13,30.83-.73,8.17-.69,16-4.38,24.37-3.91a40.68,40.68,0,0,1,6.92,1.09c2.49.58,4.92,2.07,7.36,2,3.63,0,7.46-2.18,10.83-1.53,11.21,2.18,21.43-3.14,32.26-3.35,5.65-.1,11.3-.54,16.94-.89,1.29-.07,3.07.08,3.76-.67,4.3-4.66,9.16-2.93,14.17-1.86,3.37.71,6.15-.94,8.33-2.71Z"/></g></g></svg>