<svg xmlns="http://www.w3.org/2000/svg" viewBox="0 0 249.17 1019.18"><defs><style>.cls-1{fill:#ee5864;}</style></defs><g id="레이어_2" data-name="레이어 2"><g id="레이어_1-2" data-name="레이어 1"><path class="cls-1" d="M128.42,1019.18c-37.31.06-73.88-5.2-110.06-13.89C7.62,1002.71,1.44,995.55.67,985.43c-1.15-15.2-.45-30.54-.53-45.82,0-1.52.12-3,.12-4.55,0-45.3,0-90.6.13-135.9q.24-75.17.8-150.34.36-60,.8-120.1.3-50.52.53-101.05c.11-18.64-.6-37.34.62-55.91,2.23-33.93,12-65.33,35.77-90.87,4.19-4.49,9.69-7.74,14.23-11.94,11.56-10.67,20.92-22.83,23.64-38.85a133.7,133.7,0,0,0,1.24-16c.69-13.78,1.19-27.56,1.92-41.33.94-17.87,2.14-35.74,3-53.61.53-10.61.72-21.24,1.06-31.86.27-8.53.91-17.08.63-25.6-.12-3.79-2.12-7.52-3.24-11.28C80.9,48.61,80,46.82,80,45c0-4.26.59-8.51.59-12.77s.23-8.52,3.18-12.09a4.51,4.51,0,0,0,.91-2.68C84.6,8.22,94.12,1,103.15.74,118.44.25,133.74,0,149,0c6.92,0,13.9.56,18.38,7.16.46.68,1.27,1.29,1.4,2,1.43,8.07,6.72,15.08,6.47,23.61-.1,3.73.29,7.5-.11,11.18-.31,2.75-1.56,5.39-2.32,8.1-.55,1.93-1.46,3.91-1.41,5.84.37,15.57,1,31.14,1.42,46.71.66,23.29,1.21,46.58,1.88,69.87.43,15.16,1.25,30.31,1.41,45.47.19,18.28,7,33.57,20,46.11,6.32,6.11,13.8,11.12,19.65,17.63,17.89,19.87,29,43.19,32.41,69.83,1.08,8.53.7,17.26,1,25.89,0,1.52,0,3,0,4.56q-.07,218.76-.17,437.53c-.05,51.5-.37,103-.59,154.49-.06,14.64-6.81,26-18,29.26a254.25,254.25,0,0,1-26.46,6.56c-12.44,2.25-25,4.17-37.56,5.38S141.08,1018.56,128.42,1019.18Z"/></g></g></svg>