<svg xmlns="http://www.w3.org/2000/svg" viewBox="0 0 624.43 834.69"><defs><style>.cls-1{fill:#ee5864;}</style></defs><g id="레이어_2" data-name="레이어 2"><g id="레이어_1-2" data-name="레이어 1"><path class="cls-1" d="M5.54,480.09q0-126.45.08-252.91c0-6.78,1.31-13.55,1.67-20.34.39-7.44.38-14.9.56-22.34,0-.94.21-1.89.14-2.82s-.12-2-.62-2.26c-7-4.26-7.52-11.19-7.34-18.25.13-5.1,1-10.19,1.14-15.3A120.45,120.45,0,0,0,.87,130c-.62-6-.38-11.77,1.81-17.58a38.21,38.21,0,0,0,2.19-12.16C5.48,79.12,5.76,58,6.26,36.88,6.51,26.2,9.44,21.42,19.65,18.39A173.33,173.33,0,0,1,49.92,12q41.16-4.52,82.47-7.64c16.89-1.31,33.86-1.67,50.8-2.24C205.36,1.34,227.53.41,249.7.27,293.75,0,337.81-.2,381.86.35c31,.39,62,1.86,93,3.24Q503.48,4.87,532,7.39c22.19,1.94,44.45,3.54,66.17,8.92a66.36,66.36,0,0,1,9.66,3.32c6.74,2.83,9.85,8.17,10,15.36.21,10.45.39,20.91.61,31.36.23,10.66.25,21.34.86,32a49.66,49.66,0,0,0,2.84,13.6A35,35,0,0,1,624,129.55a71.26,71.26,0,0,0-.36,17.81c.61,6.79.63,13.63.67,20.46,0,5-2.47,8.62-7.13,10.71a2.53,2.53,0,0,0-1.25,1.86c.11,9.14-.77,18.48.84,27.37,1.66,9.16,1.75,18.2,1.75,27.33q.12,248.12.07,496.23c0,7.41-1.24,14.82-1.86,22.23-.48,5.84-.15,11.86-1.49,17.49a188.07,188.07,0,0,1-8.47,27.44c-3.78,9.32-11.7,15.14-21.2,17.67-11.9,3.18-24,6.26-36.22,7.58Q507.26,828.29,465,831c-23.4,1.52-46.87,2.26-70.32,2.66q-58.39,1-116.8,1.05-33.42,0-66.85-1.32c-29.09-1.15-58.17-2.56-87.22-4.51-24.14-1.62-48.26-3.84-72-8.88A99.42,99.42,0,0,1,35,814.78c-11-4.46-17.9-12.69-20.92-24.23-1.26-4.84-3-9.56-4.32-14.39a60.56,60.56,0,0,1-1.56-8.77Q7.16,758.2,6.4,749c-.41-5-.85-10-.86-15Q5.47,607,5.51,480.09Z"/></g></g></svg>