<svg xmlns="http://www.w3.org/2000/svg" viewBox="0 0 741.59 759.26"><defs><style>.cls-1{fill:#ee5864;}</style></defs><g id="레이어_2" data-name="레이어 2"><g id="레이어_1-2" data-name="레이어 1"><path class="cls-1" d="M381.44,1.46l0-1.46c-26.2.94-52.4,1.78-78.6,2.88-13,.55-26.06,1.16-39,2.51q-30.54,3.18-61,7.45A539,539,0,0,0,120,31.1C92.64,39.49,66.25,50,42.42,66.18a137.39,137.39,0,0,0-29,26.1A56.26,56.26,0,0,0,0,130.1Q.46,163,1.59,195.82a73.91,73.91,0,0,0,2.8,19c2.62,8.49,8.33,15.24,15.07,21.09a8.11,8.11,0,0,1,2.45,5c.73,11,1.14,22,1.7,33,1,19,2,37.92,2.95,56.89.57,11.25,1,22.51,1.61,33.76.95,18.46,2,36.91,2.93,55.37.6,11.75,1,23.52,1.61,35.28,1,19.73,2,39.45,3,59.17.54,10.88,1,21.76,1.58,32.63,1,19,2.22,37.92,2.88,56.89.41,11.56,2.58,22.42,7.82,32.86,12.76,25.42,32.07,44.72,55.48,60.23,31.1,20.59,65.62,33.15,101.46,42.42a556.55,556.55,0,0,0,92.92,16c20.67,1.74,41.4,3.1,62.13,3.69,14.4.41,28.86-.64,43.28-1.32,13-.62,26.06-1.16,39-2.58,18.59-2,37.14-4.49,55.6-7.43,33.57-5.36,66.38-13.71,97.9-26.63,30.66-12.57,59-28.85,81.53-53.69,19.1-21,30.81-45.14,31.13-74.23.21-19.63,1.41-39.24,2.16-58.85q1.53-40.44,3-80.87c.64-17.59,1.14-35.19,1.73-52.79.24-7.22.53-14.43.83-21.64.92-21.89,1.92-43.77,2.76-65.66.68-17.47,1.15-34.94,1.74-52.41.23-7.09.54-14.18.79-21.27A13.7,13.7,0,0,1,726,229.58c10.08-9.62,16.48-20.52,15.5-35.74-1.43-22.48-.91-45.09-1.22-67.65A54.16,54.16,0,0,0,734.62,102c-9-17.82-23.47-30.32-40.06-40.6C666.48,44,635.48,33.86,603.73,25.81A722.4,722.4,0,0,0,498.11,7.45c-22.89-2.29-45.82-4.52-68.79-5.82C413.4.73,397.4,1.46,381.44,1.46Z"/><path class="cls-1" d="M381.44,1.46c16,0,32-.73,47.88.17,23,1.3,45.9,3.53,68.79,5.82A722.4,722.4,0,0,1,603.73,25.81c31.75,8.05,62.75,18.2,90.83,35.61,16.59,10.28,31,22.78,40.06,40.6a54.16,54.16,0,0,1,5.65,24.17c.31,22.56-.21,45.17,1.22,67.65,1,15.22-5.42,26.12-15.5,35.74a13.7,13.7,0,0,0-4.52,10.22c-.25,7.09-.56,14.18-.79,21.27-.59,17.47-1.06,34.94-1.74,52.41-.84,21.89-1.84,43.77-2.76,65.66-.3,7.21-.59,14.42-.83,21.64-.59,17.6-1.09,35.2-1.73,52.79q-1.46,40.44-3,80.87c-.75,19.61-2,39.22-2.16,58.85-.32,29.09-12,53.21-31.13,74.23-22.56,24.84-50.87,41.12-81.53,53.69-31.52,12.92-64.33,21.27-97.9,26.63-18.46,2.94-37,5.38-55.6,7.43-12.94,1.42-26,2-39,2.58-14.42.68-28.88,1.73-43.28,1.32-20.73-.59-41.46-1.95-62.13-3.69a556.55,556.55,0,0,1-92.92-16c-35.84-9.27-70.36-21.83-101.46-42.42C80.06,681.52,60.75,662.22,48,636.8c-5.24-10.44-7.41-21.3-7.82-32.86-.66-19-1.91-37.93-2.88-56.89-.56-10.87-1-21.75-1.58-32.63-1-19.72-2-39.44-3-59.17-.58-11.76-1-23.53-1.61-35.28-.93-18.46-2-36.91-2.93-55.37-.58-11.25-1-22.51-1.61-33.76-1-19-2-37.93-2.95-56.89-.56-11-1-22-1.7-33a8.11,8.11,0,0,0-2.45-5C12.72,230.06,7,223.31,4.39,214.82a73.91,73.91,0,0,1-2.8-19Q.42,163,0,130.1A56.26,56.26,0,0,1,13.42,92.28a137.39,137.39,0,0,1,29-26.1C66.25,50,92.64,39.49,120,31.1a539,539,0,0,1,82.87-18.26q30.41-4.29,61-7.45c12.95-1.35,26-2,39-2.51C329,1.78,355.21.94,381.41,0Z"/></g></g></svg>